<?xml version="1.0" encoding="utf-8"?>
<!-- Generator: Adobe Illustrator 18.1.1, SVG Export Plug-In . SVG Version: 6.00 Build 0)  -->
<svg version="1.1" id="Layer_1" xmlns="http://www.w3.org/2000/svg" xmlns:xlink="http://www.w3.org/1999/xlink" x="0px" y="0px"
	 viewBox="0 0 256 256" enable-background="new 0 0 256 256" xml:space="preserve">
<rect x="0" y="0" fill="#00BBDD" width="256" height="256"/>
<path fill="#FFFFFF" d="M219.8,106.6c0,0,0-0.1,0-0.1c-0.1-0.5-0.3-1.1-0.4-1.5c0,0,0,0,0,0c-0.1-0.2-0.1-0.4-0.2-0.6
	c0,0,0-0.1,0-0.1c-0.1-0.2-0.2-0.4-0.2-0.6c-0.3-0.8-0.6-1.4-1-2.1c0-0.1-0.1-0.1-0.1-0.2c-0.1-0.1-0.1-0.2-0.2-0.3
	c-0.1-0.1-0.2-0.3-0.2-0.4c-0.3-0.4-0.6-0.9-0.9-1.4c-0.1-0.2-0.2-0.3-0.3-0.5c-0.1-0.1-0.1-0.2-0.2-0.3c-0.1-0.2-0.3-0.3-0.4-0.5
	c0,0,0,0,0,0c-0.3-0.3-0.6-0.7-0.8-0.9c-0.3-0.3-0.7-0.7-1.1-1.1c-0.5-0.5-1-0.9-1.3-1.1c-0.6-0.5-1.4-1.2-2.1-1.7
	c-1.2-0.8-2.9-2-5.1-3.1c0,0,0,0-0.1,0c-0.1,0-0.1-0.1-0.2-0.1c-0.1,0-0.2-0.1-0.3-0.1c-3.8-1.9-8-3.3-8.4-3.4
	c-0.8-0.3-1.8-0.6-2.7-0.8c-0.5-0.1-1-0.3-1.4-0.4c-0.3-0.1-0.5-0.1-0.8-0.2c-0.1,0-0.1,0-0.2-0.1c-1.5-0.4-3.5-0.9-5-1.2
	c-1.5-0.3-3.5-0.7-5-0.9c-1.4-0.2-3.1-0.5-4.6-0.7c0,0,0,0-0.1,0c-1.9-0.3-4.3-0.5-6.2-0.7c-1.8-0.2-4.3-0.4-6.2-0.4
	c-1.9-0.1-4.4-0.2-6.3-0.2c-1.9,0-4.3-0.1-6.2,0c-0.6,0-3.2,0-6.7,0.1c0,0-0.1,0-0.1,0c-0.9,0-2,0.1-3.1,0.1
	c-1.2,0.1-2.4,0.1-3.7,0.2c-2,0.1-4.3,0.3-6.6,0.5c-4.5,0.4-7.4,0.8-7.4,0.8c-1.2,0.1-2.6,0.3-4.1,0.5c-1,0.1-2.1,0.3-3,0.4
	c-0.1,0-0.2,0-0.3,0c-2.8,0.4-5.3,0.8-6.6,1.1c0,0,0,0,0,0c-0.9,0.2-2,0.4-3.1,0.6c-1.2,0.2-2.5,0.5-3.5,0.7c0,0,0,0,0,0
	c-2.2,0.5-4.4,0.9-6.4,1.4c0,0,0,0-0.1,0c0,0,0,0,0,0c-0.3,0.1-0.6,0.1-0.9,0.2c-1.7,0.4-3.8,0.9-5.4,1.4c-0.1,0-0.1,0-0.2,0.1
	c-1.6,0.4-3.1,0.9-4.6,1.3c-0.4,0.1-0.8,0.2-1.1,0.3C84,90.7,83.5,90.9,83,91c-1.5,0.5-2.9,0.9-4.2,1.4c-0.1,0-0.2,0.1-0.3,0.1
	c-1.8,0.6-4.8,1.7-5.4,1.9c4.2,4.1,20.5,10.2,27.4,11.1c0.4-0.1,2.5-0.7,6.4-1.5c0.1,0,0.1,0,0.2,0c1.7-0.4,3.7-0.8,5.9-1.1
	c2.2-0.4,4.1-0.7,5.9-1c0.1,0,0.1,0,0.2,0c0.2,0,0.4-0.1,0.6-0.1c0.2,0,0.4-0.1,0.5-0.1c3.2-0.5,5.3-0.7,5.7-0.8
	c0.7-0.1,1.5-0.2,2.3-0.3c1.1-0.1,2.4-0.2,3.9-0.4c1.2-0.1,2.4-0.2,3.8-0.3c2-0.2,4.7-0.3,7.7-0.5c2.3-0.1,4.8-0.2,7.5-0.2
	c0,0,0.1,0,0.2,0c0.1,0,0.3,0,0.4,0c0.1,0,0.1,0,0.2,0c1.9,0,3.6,0,5.1,0c0,0,0,0,0,0c0.7,0,1.5,0,2.2,0.1c0.4,0,0.7,0,1.1,0
	c0.6,0,1.1,0,1.7,0.1c0.1,0,0.3,0,0.4,0c0.2,0,0.3,0,0.5,0c0.7,0,1.5,0.1,2.2,0.1c0.1,0,0.2,0,0.3,0c0.9,0.1,1.8,0.1,2.7,0.2
	c0.5,0,0.9,0.1,1.4,0.1c2.1,0.2,3.4,0.4,3.6,0.4c0.7,0.1,1.6,0.2,2.5,0.3c0.8,0.1,1.6,0.2,2.5,0.4c0.8,0.1,1.7,0.3,2.5,0.4
	c0,0,0.1,0,0.1,0c0.1,0,0.1,0,0.2,0c0.3,0.1,0.6,0.1,0.9,0.2c0.2,0,0.3,0.1,0.5,0.1c2.1,0.5,4.8,1.2,6.9,1.8
	c0.7,0.2,1.4,0.4,2.1,0.7c0.4,0.2,0.8,0.3,1.2,0.4c0,0,0,0,0,0c0.1,0,0.2,0.1,0.3,0.1c0.3,0.1,0.6,0.3,0.9,0.4
	c0.8,0.3,1.5,0.7,2.1,1c0,0,0.1,0,0.1,0.1c0.2,0.1,0.5,0.2,0.7,0.3c0.2,0.1,0.3,0.2,0.5,0.3c0.1,0,0.2,0.1,0.2,0.1
	c0.4,0.2,0.8,0.5,1.2,0.7c0.1,0.1,0.2,0.1,0.3,0.2c0.3,0.2,0.6,0.4,0.8,0.6c0.3,0.3,0.7,0.6,1,0.9c0,0,0,0,0,0
	c0.1,0.1,0.1,0.1,0.2,0.2c-0.4,0.4-0.8,0.8-1.2,1.2c-0.1,0-0.1,0.1-0.2,0.1c-0.5,0.4-1.1,0.8-1.7,1.2c-0.2,0.1-0.4,0.2-0.6,0.3
	c0,0,0,0,0,0c-0.2,0.1-0.4,0.2-0.7,0.4c0,0-0.1,0-0.1,0.1c-0.2,0.1-0.4,0.2-0.7,0.3c-0.6,0.3-1.3,0.6-2.1,0.9
	c-1.3,0.5-2.8,1.1-3.9,1.5c-0.2,0.1-0.5,0.2-0.8,0.3c-0.1,0-0.2,0.1-0.3,0.1c-0.9,0.3-2,0.6-2.8,0.8c-0.9,0.2-1.9,0.5-3,0.7
	c-0.5,0.1-1,0.2-1.5,0.3c-0.1,0-0.1,0-0.2,0c-0.2,0-0.3,0.1-0.4,0.1c-0.1,0-0.2,0-0.3,0.1c-0.1,0-0.3,0.1-0.4,0.1
	c-0.1,0-0.2,0-0.3,0c-0.2,0-0.4,0.1-0.6,0.1c0,0,0,0-0.1,0c-2.6,0.5-4.7,0.7-5.9,0.9c-0.4,0.1-0.8,0.1-1.2,0.1
	c-1.3,0.1-2.8,0.3-4.5,0.5c-0.9,0.1-1.9,0.1-3,0.2c-0.1,0-0.2,0-0.2,0c-0.3,0-0.7,0-1,0.1c0,0-0.1,0-0.1,0
	c-3.5,0.2-7.9,0.3-12.9,0.3c-3.7-0.1-8.4-0.2-12-0.5c-2.7-0.2-5.1-0.4-7.1-0.6c-0.1,0-0.3,0-0.4,0c-3.4-0.3-5.5-0.6-5.5-0.6
	c-3.9-0.5-9-1.3-12.9-2c-0.5-0.1-0.9-0.2-1.4-0.3c-1.3-0.3-2.8-0.5-4.3-0.9c-2.4-0.5-4.5-1-6.3-1.4c-0.3-0.1-0.5-0.1-0.8-0.2
	c-2.2-0.5-3.9-1-5-1.3c-0.7-0.2-1.5-0.4-2.2-0.6c-0.5-0.1-1-0.3-1.5-0.4c-0.1,0-0.3-0.1-0.4-0.1c-0.7-0.2-1.5-0.5-2.2-0.7
	c-0.4-0.1-0.7-0.2-1.1-0.3c-0.2-0.1-0.5-0.2-0.7-0.2c-0.4-0.1-0.8-0.2-1.2-0.4c-9.3-3-18.2-7.6-23-10.7c-0.2-0.2-0.5-0.3-0.7-0.5
	c0,0-0.1,0-0.1-0.1c-0.1-0.1-0.2-0.1-0.3-0.2c-0.3-0.2-0.5-0.4-0.8-0.6c-0.6-0.5-1.2-0.9-1.7-1.3c-0.1-0.1-0.1-0.1-0.2-0.2
	c-0.1-0.1-0.2-0.2-0.3-0.2c-0.8-0.7-1.4-1.3-1.8-1.8c-0.1-0.1-0.2-0.2-0.3-0.3c-0.3-0.3-0.5-0.6-0.7-0.8c-0.1-0.1-0.2-0.3-0.3-0.4
	c-0.1-0.2-0.3-0.4-0.4-0.6c0,0,0,0,0,0c-0.1-0.2-0.2-0.3-0.2-0.5c0,0,0-0.1-0.1-0.1c0-0.1-0.1-0.2-0.1-0.3c0-0.1-0.1-0.1-0.1-0.2
	c-0.1-0.3-0.1-0.5-0.1-0.7c0.1-0.7,0.1-1.5,0-2.3c0-0.1,0-0.2,0.1-0.4c0,0,0-0.1,0-0.1c0-0.1,0.1-0.2,0.1-0.3c0,0,0-0.1,0-0.1
	c0.2-0.6,0.6-1.2,1.1-1.7c0.1-0.1,0.1-0.1,0.2-0.2c0.4-0.5,0.9-1,1.4-1.5c0.2-0.2,0.3-0.3,0.5-0.5c0,0,0,0,0,0
	c0.2-0.2,0.4-0.3,0.5-0.5c0,0,0.1-0.1,0.1-0.1c0.2-0.2,0.4-0.3,0.6-0.5c0.5-0.4,1.1-0.9,1.8-1.4c1.1-0.8,2.4-1.7,3.5-2.4
	c0.2-0.1,0.4-0.3,0.7-0.4c0.1-0.1,0.3-0.2,0.5-0.3c0.8-0.5,1.7-1,2.4-1.4c0.8-0.4,1.7-0.9,2.7-1.4c0.5-0.2,0.9-0.5,1.4-0.7
	c0,0,0.1,0,0.1-0.1c0.4-0.2,0.8-0.4,1.2-0.6c0,0,0.1,0,0.1-0.1c2.6-1.2,4.9-2.1,6.1-2.6c0.2-0.1,0.6-0.2,1.1-0.4
	c0.1,0,0.1-0.1,0.2-0.1c0.1,0,0.1,0,0.2-0.1c0.2-0.1,0.4-0.1,0.5-0.2c0,0,0.1,0,0.1,0c0.5-0.2,1-0.4,1.5-0.5c0,0,0,0,0,0
	c0.3-0.1,0.5-0.2,0.8-0.3c0,0,0.1,0,0.1,0c0.2-0.1,0.5-0.2,0.7-0.2c0.1,0,0.2-0.1,0.2-0.1c0.2-0.1,0.4-0.1,0.6-0.2
	c0.1,0,0.2-0.1,0.3-0.1c3.7-1.2,9-2.8,15.6-4.4c1.5-0.3,3-0.7,4.7-1.1c0.2,0,0.4-0.1,0.6-0.1c0.3-0.1,0.6-0.1,0.9-0.2
	c0.5-0.1,1.3-0.3,2.2-0.4c0.1,0,0.3-0.1,0.4-0.1c0.1,0,0.2,0,0.3,0c0.8-0.2,1.7-0.3,2.7-0.5c2.6-0.5,4.9-0.8,6.9-1.1c0,0,0,0,0.1,0
	c3.3-0.5,5.5-0.7,5.9-0.8c3.9-0.4,9.1-1,13-1.2c0,0,0,0,0,0c0.1,0,0.3,0,0.4,0c1.7-0.1,3.6-0.2,5.7-0.3c0.2,0,0.4,0,0.6,0
	c0.2,0,0.5,0,0.7,0c2.3-0.1,4-0.1,5-0.1c0,0,0.1,0,0.2,0c0.1,0,0.3,0,0.4,0c0.1,0,0.1,0,0.2,0c1.9,0,3.6,0,5.1,0.1c0,0,0,0,0,0
	c0.7,0,1.5,0,2.2,0.1c0.4,0,0.7,0,1.1,0c0.6,0,1.1,0,1.7,0.1c0.1,0,0.3,0,0.4,0c0.2,0,0.3,0,0.5,0c0.7,0,1.5,0.1,2.2,0.1
	c0.1,0,0.2,0,0.3,0c0.9,0.1,1.8,0.1,2.7,0.2c0.5,0,0.9,0.1,1.4,0.1c2.1,0.2,3.4,0.4,3.6,0.4c0.7,0.1,1.6,0.2,2.5,0.3
	c0.8,0.1,1.6,0.2,2.5,0.4c0.7,0.1,1.5,0.3,2.3,0.4c0.5,0.1,1,0.2,1.6,0.3c0.1,0,0.2,0,0.4,0.1c2.1,0.5,4.8,1.2,6.8,1.8
	c0.7,0.2,1.4,0.4,2.1,0.7c0.1,0,0.3,0.1,0.4,0.1c0.2,0.1,0.3,0.1,0.5,0.2c0.1,0,0.3,0.1,0.4,0.1c0,0,0.1,0,0.1,0.1
	c0.4,0.1,0.7,0.3,1.1,0.4c0.8,0.3,1.5,0.7,2.1,1c0,0,0.1,0,0.1,0.1c0.2,0.1,0.5,0.2,0.7,0.3c0.2,0.1,0.3,0.2,0.5,0.3
	c0.1,0,0.1,0.1,0.2,0.1c0.4,0.3,0.8,0.5,1.2,0.7c0.1,0.1,0.2,0.1,0.3,0.2c0.3,0.2,0.6,0.4,0.8,0.6c0.3,0.3,0.7,0.6,1,0.9
	c0,0,0,0,0,0c0.1,0.1,0.2,0.3,0.4,0.4c0,0,0.1,0.1,0.1,0.1c0.1,0.1,0.1,0.2,0.2,0.3c0,0.1,0.1,0.1,0.1,0.2c0.1,0.2,0.2,0.5,0.2,0.6
	c0.6,4.8,5.2,8.2,10.3,7.5c5.1-0.6,8.7-5,8.2-9.8c-0.1-0.6-0.2-1.4-0.4-2.3c0,0,0-0.1,0-0.1c-0.1-0.5-0.3-1.1-0.4-1.5c0,0,0,0,0,0
	c-0.1-0.2-0.1-0.4-0.2-0.6c0,0,0-0.1,0-0.1c-0.1-0.2-0.2-0.4-0.2-0.6c-0.3-0.8-0.6-1.4-1-2.1c0-0.1-0.1-0.2-0.1-0.2
	c-0.1-0.1-0.1-0.2-0.2-0.3c-0.1-0.1-0.2-0.3-0.2-0.4c-0.3-0.4-0.6-0.9-0.9-1.4c-0.1-0.2-0.2-0.3-0.3-0.5c-0.1-0.1-0.2-0.2-0.2-0.3
	c-0.1-0.2-0.3-0.3-0.4-0.5c0,0,0,0,0,0c-0.3-0.3-0.6-0.7-0.8-1c-0.3-0.3-0.7-0.7-1.1-1.1c-0.5-0.5-0.9-0.9-1.2-1.1
	c-0.6-0.5-1.4-1.2-2.1-1.7c-1.2-0.8-2.9-2-5.1-3.1c0,0,0,0-0.1,0c-0.1,0-0.1-0.1-0.2-0.1c-0.1,0-0.2-0.1-0.3-0.1
	c-3.8-1.9-8-3.3-8.4-3.4c-0.8-0.3-1.8-0.6-2.7-0.8c-0.5-0.1-1-0.3-1.4-0.4c-0.3-0.1-0.5-0.1-0.8-0.2c-0.1,0-0.1,0-0.2-0.1
	c-1.5-0.4-3.5-0.9-5-1.2c-1.5-0.3-3.5-0.7-5-0.9c-1.4-0.2-3.1-0.5-4.6-0.7c0,0,0,0-0.1,0c-1.9-0.3-4.3-0.5-6.2-0.7
	c-1.8-0.2-4.3-0.4-6.2-0.4c-1.9-0.1-4.4-0.2-6.3-0.2c-1.9,0-4.3-0.1-6.2,0c-0.6,0-3.2,0-6.7,0.1c0,0-0.1,0-0.1,0
	c-0.9,0-2,0.1-3.1,0.1c-1.2,0.1-2.4,0.1-3.7,0.2c-2,0.1-4.3,0.3-6.6,0.5c-4.5,0.4-7.4,0.8-7.4,0.8c-1.2,0.1-2.6,0.3-4.1,0.5
	c-1,0.1-2.1,0.3-3,0.4c-0.1,0-0.2,0-0.3,0.1c-2.8,0.4-5.3,0.8-6.6,1.1c0,0,0,0,0,0c-0.9,0.2-2,0.4-3.1,0.6c-1.2,0.2-2.5,0.5-3.5,0.7
	c0,0,0,0,0,0c-2.2,0.5-4.4,0.9-6.4,1.4c0,0,0,0-0.1,0c0,0,0,0,0,0c-0.3,0.1-0.6,0.1-0.9,0.2c-1.7,0.4-3.8,0.9-5.4,1.4
	c-0.1,0-0.1,0-0.2,0.1c-1.6,0.4-3.1,0.9-4.6,1.3c-0.4,0.1-0.8,0.2-1.1,0.3c-0.5,0.1-0.9,0.3-1.5,0.5c-1.5,0.5-2.9,0.9-4.2,1.4
	c-0.1,0-0.2,0.1-0.3,0.1c-1.8,0.6-4.1,1.5-5.9,2.1c0,0-0.1,0-0.1,0.1c-5.6,2.2-9.4,4-9.4,4.1c-1.5,0.7-3.5,1.8-5,2.6
	c-1.1,0.6-2.3,1.3-3.5,2c-0.2,0.1-0.4,0.2-0.6,0.4c-0.5,0.3-0.9,0.6-1.3,0.8c-0.1,0.1-0.2,0.2-0.4,0.3c-0.4,0.3-0.8,0.5-1.2,0.8
	c-1.3,0.9-3,2.2-4.3,3.3c-0.9,0.7-2.4,2.1-3.9,3.8c0,0-0.1,0.1-0.1,0.1c-0.6,0.6-1.4,1.6-1.9,2.3c0,0-0.1,0.1-0.1,0.1
	c-0.1,0.1-0.2,0.3-0.3,0.4c-0.6,0.8-1.3,1.9-1.8,2.8c0,0,0,0,0,0c-0.5,0.8-1,1.9-1.4,2.8c-0.1,0.2-0.1,0.3-0.2,0.5
	c0,0.1,0,0.1-0.1,0.2c0,0,0,0.1,0,0.1c0,0.1-0.1,0.2-0.1,0.3c0,0,0,0.1,0,0.1c-0.1,0.3-0.2,0.7-0.3,1.1c0,0.1,0,0.2-0.1,0.2
	c0,0.1-0.1,0.2-0.1,0.3c-0.1,0.5-0.2,1.1-0.3,1.6c-0.1,0.4-0.1,0.8-0.2,1.2c0,0.1,0,0.2,0,0.3c0,0,0,0.1,0,0.1c0,0.2,0,0.3,0,0.5
	c0,0.1,0,0.2,0,0.3c0,0.1,0,0.1,0,0.2c0,0.3,0,0.7,0,1.1c0,0.1,0,0.3,0,0.4c0,0.1,0,0.1,0,0.2c0,0.6-0.1,1.2-0.1,1.7
	c0,0.5,0,1.1,0.1,1.5c0.1,0.8,0.2,1.6,0.3,2.3c0.2,0.8,0.4,1.5,0.6,2.5c0.1,0.4,0.3,0.9,0.5,1.4c0.1,0.1,0.1,0.3,0.2,0.4
	c0.1,0.1,0.1,0.3,0.2,0.5c0,0.1,0.1,0.1,0.1,0.2c0,0,0,0,0,0.1c0,0.1,0.1,0.2,0.1,0.2c0.1,0.2,0.2,0.4,0.3,0.7
	c0.1,0.1,0.1,0.2,0.2,0.3c0.1,0.2,0.2,0.3,0.2,0.5c0,0.1,0.1,0.1,0.1,0.2c0,0.1,0.1,0.1,0.1,0.2c0.1,0.2,0.2,0.4,0.3,0.6
	c0,0,0,0.1,0,0.1c0.1,0.1,0.1,0.2,0.2,0.3c0.1,0.2,0.2,0.4,0.4,0.6c0.1,0.2,0.3,0.4,0.4,0.6c0.2,0.3,0.4,0.6,0.6,0.9
	c0.4,0.6,1.2,1.6,2.5,2.9c0.4,0.5,0.8,0.8,1,1c0,0,0.1,0.1,0.1,0.1c0.2,0.2,0.4,0.4,0.6,0.6c0.3,0.3,0.6,0.6,1,0.9
	c-0.8,0.8-1.8,1.7-2.9,2.8c0,0-0.1,0.1-0.1,0.1c-0.6,0.6-1.4,1.6-1.9,2.3c0,0-0.1,0.1-0.1,0.1c-0.1,0.1-0.2,0.3-0.3,0.4
	c-0.6,0.8-1.3,1.9-1.8,2.8c0,0,0,0,0,0c-0.5,0.8-1,1.9-1.4,2.8c-0.1,0.1-0.1,0.3-0.2,0.4c0,0.1-0.1,0.1-0.1,0.2c0,0,0,0.1-0.1,0.1
	c0,0.1-0.1,0.2-0.1,0.3c0,0.1,0,0.1-0.1,0.2c-0.1,0.3-0.2,0.7-0.3,1.1c0,0.1,0,0.2-0.1,0.2c0,0.1-0.1,0.2-0.1,0.3
	c-0.1,0.5-0.2,1.1-0.3,1.5c-0.1,0.4-0.1,0.8-0.2,1.2c0,0.1,0,0.2,0,0.3c0,0,0,0.1,0,0.1c0,0.2,0,0.3,0,0.5c0,0.1,0,0.2,0,0.3
	c0,0.1,0,0.1,0,0.2c0,0.3,0,0.7,0,1.1c0,0.1,0,0.3,0,0.4c0,0.1,0,0.1,0,0.2c0,0.6-0.1,1.2-0.1,1.6c0,0.5,0,1.1,0.1,1.6
	c0.1,0.7,0.2,1.5,0.3,2.2c0.2,0.9,0.4,1.6,0.7,2.6c0.1,0.4,0.3,0.9,0.5,1.3c0.1,0.1,0.1,0.3,0.2,0.4c0.1,0.2,0.1,0.3,0.2,0.5
	c0,0,0,0.1,0.1,0.1c0,0,0,0,0,0c0,0.1,0.1,0.2,0.1,0.2c0.1,0.2,0.2,0.4,0.3,0.7c0,0.1,0.1,0.2,0.2,0.3c0.1,0.2,0.2,0.3,0.2,0.5
	c0,0.1,0.1,0.1,0.1,0.2c0,0.1,0.1,0.1,0.1,0.2c0.1,0.2,0.2,0.4,0.3,0.6c0,0,0,0.1,0.1,0.1c0.1,0.1,0.1,0.2,0.2,0.3
	c0.1,0.2,0.2,0.3,0.3,0.5c0.1,0.2,0.3,0.4,0.4,0.6c0.2,0.3,0.4,0.6,0.6,0.8c0.4,0.6,1.2,1.6,2.5,2.9c0.4,0.5,0.8,0.8,1,1
	c0,0,0.1,0.1,0.1,0.1c0.2,0.2,0.4,0.4,0.6,0.6c0.5,0.5,1.1,1,1.6,1.4c0.5,0.4,1,0.8,1.5,1.2c0.8,0.7,1.9,1.4,2.9,2.1
	c0.5,0.4,1,0.7,1.4,1c0.3,0.2,1,0.7,2.1,1.3c0.5,0.3,1,0.6,1.6,0.9c0.7,0.4,1.5,0.9,2.4,1.4c0.1,0,0.2,0.1,0.3,0.1
	c1.3,0.8,3.2,1.7,4.6,2.3c0,0,0,0,0.1,0c1.6,0.8,3.1,1.4,4.4,2c0,0,0.1,0,0.1,0.1c0.1,0.1,0.3,0.1,0.4,0.2c2.5,1.1,4.4,1.8,4.5,1.8
	c0,0,0.1,0,0.1,0c0.1,0,0.1,0,0.2,0.1c0.6,0.2,1.2,0.4,1.8,0.7c2.6,1,5.7,2.1,9.5,3.2c0.5,0.1,1,0.3,1.5,0.4
	c1.3,0.4,2.8,0.8,4.3,1.2c2.1,0.6,3.1,0.9,6.2,1.6c1.9,0.5,4,0.9,6.2,1.4c0,0,0,0,0,0c0,0,0,0,0,0c0.9,0.2,2,0.4,3.1,0.6
	c1.2,0.2,2.5,0.5,3.5,0.7c0,0,0,0,0,0c0,0,0,0,0,0c2,0.4,4.2,0.7,6.6,1.1c0.1,0,0.2,0,0.3,0c1.6,0.3,3.7,0.5,5.5,0.8l8.2,31.9
	c0.7,2.8,2.8,5.2,5.6,6.2c1,0.4,2,0.5,3,0.5c1.8,0,3.7-0.6,5.2-1.7l41.5-38.7c4-2.9,4.9-8.4,2.1-12.4c-2.9-4-8.4-4.9-12.4-2.1
	l-31,31.1l-6.8-26.2c-1-4-4.7-6.7-8.6-6.7l0,0c-4-0.1-12-1.5-15.9-2.2c-0.2,0-0.3-0.1-0.4-0.1c-1.7-0.3-3.6-0.7-5.7-1.1
	c0,0-0.1,0-0.1,0c-0.2,0-0.4-0.1-0.6-0.1c-2.4-0.5-4.2-0.9-5.2-1.2c-0.8-0.2-1.8-0.4-3.1-0.8c0,0-0.1,0-0.1,0c-0.1,0-0.2,0-0.2-0.1
	c-0.9-0.2-1.7-0.5-2.3-0.6c0,0,0,0,0,0c-0.7-0.2-1.4-0.4-2.1-0.6c-0.4-0.1-0.7-0.2-1.1-0.3c-0.5-0.2-1.1-0.3-1.6-0.5
	c-0.1,0-0.3-0.1-0.4-0.1c-0.2,0-0.3-0.1-0.5-0.1c-0.7-0.2-1.4-0.4-2.1-0.7c-0.1,0-0.2-0.1-0.3-0.1c-0.8-0.3-1.7-0.6-2.5-0.9
	c-0.5-0.2-1-0.3-1.4-0.5c0,0-0.1,0-0.1,0c-0.1,0-0.1,0-0.2-0.1c-1.7-0.6-2.7-1-2.9-1.1c-0.8-0.3-1.7-0.7-2.5-1
	c-0.7-0.3-1.3-0.6-2.1-0.9c-0.6-0.2-1.2-0.5-1.8-0.8c-0.6-0.3-1.3-0.6-2.1-1c0,0-0.1,0-0.1-0.1c-1.9-1-4.4-2.4-6.3-3.4
	c-0.1-0.1-0.2-0.1-0.3-0.2c-0.3-0.2-0.5-0.3-0.8-0.5c-0.1-0.1-0.2-0.1-0.3-0.2c-0.1,0-0.1-0.1-0.2-0.1c-0.5-0.3-1-0.7-1.4-1
	c-0.2-0.1-0.4-0.3-0.6-0.5c-0.2-0.1-0.3-0.2-0.4-0.3c-0.6-0.5-1.2-0.9-1.7-1.3c-0.1-0.1-0.1-0.1-0.2-0.2c-0.1-0.1-0.2-0.2-0.3-0.2
	c-0.8-0.7-1.4-1.3-1.8-1.8c-0.1-0.1-0.2-0.2-0.3-0.3c-0.3-0.3-0.5-0.6-0.7-0.8c-0.1-0.1-0.2-0.3-0.3-0.4c0,0,0,0,0,0
	c-0.1-0.2-0.3-0.4-0.4-0.6c0,0,0,0,0,0c-0.1-0.2-0.2-0.3-0.2-0.5c0,0,0-0.1,0-0.1c-0.1-0.1-0.1-0.2-0.1-0.3c0-0.1,0-0.1-0.1-0.2
	c-0.1-0.2-0.1-0.4-0.1-0.6c0.1-0.7,0.1-1.5,0-2.3c0-0.1,0-0.2,0.1-0.4c0,0,0-0.1,0-0.1c0-0.1,0.1-0.2,0.1-0.4c0,0,0-0.1,0-0.1
	c0.3-0.6,0.7-1.2,1.1-1.8c0-0.1,0.1-0.1,0.1-0.2c0.4-0.5,0.9-1,1.4-1.5c0.1-0.1,0.3-0.3,0.4-0.4c0,0,0,0,0.1-0.1
	c0.2-0.2,0.4-0.3,0.5-0.5c0,0,0.1-0.1,0.1-0.1c0.2-0.2,0.4-0.3,0.6-0.5c0.5-0.4,1.1-0.9,1.8-1.4c0.5-0.4,1.1-0.8,1.7-1.2
	c0.3,0.1,0.5,0.2,0.7,0.3c0,0,0,0,0,0c1.5,0.7,3,1.4,4.4,2c0.1,0,0.1,0.1,0.2,0.1c0.2,0.1,0.3,0.2,0.5,0.2c2.5,1.1,4.3,1.7,4.4,1.8
	c0,0,0,0,0.1,0c0.1,0,0.1,0.1,0.2,0.1c2,0.8,5.6,2.1,10.3,3.6c0.1,0,0.2,0.1,0.4,0.1c0.9,0.3,2,0.6,3.1,0.9c1,0.3,2,0.6,3.1,0.9
	c0.1,0,2.3,0.7,6.3,1.6c0,0,0,0,0,0c0.3,0.1,0.5,0.1,0.8,0.2c1.6,0.4,3.5,0.8,5.6,1.3c0,0,0,0,0.1,0c0.9,0.2,2,0.4,3,0.6
	c1.2,0.2,2.5,0.5,3.6,0.7c0,0,0,0,0,0c0,0,0,0,0,0c1.1,0.2,3.3,0.6,6.7,1.1c0,0,0.1,0,0.1,0c1.4,0.2,3.2,0.5,4.8,0.7
	c0.7,0.1,1.4,0.2,2.2,0.3c0,0,0,0,0,0c0,0,2.9,0.4,7.6,0.8c2.7,0.3,5.2,0.5,6.5,0.5c0,0,0,0,0,0c1.3,0.1,2.5,0.2,3.7,0.2
	c1.1,0.1,2.1,0.1,3,0.1c0,0,0.1,0,0.1,0c3.4,0.1,6,0.2,6.5,0.2c2,0,4.6,0,6.5,0c1.8-0.1,4.2-0.1,6.1-0.2c1.8-0.1,4.2-0.3,6-0.4
	c0.2,0,0.5,0,0.8-0.1c1.6-0.1,3.5-0.4,5.1-0.5c2.2-0.3,4.2-0.6,5.3-0.7c0.1,0,0.2,0,0.3-0.1c0.7-0.1,1.5-0.2,2.2-0.4
	c1-0.2,2.1-0.4,3-0.6c0.1,0,0.2,0,0.2-0.1c1.7-0.4,3.5-0.8,5.3-1.2c1.7-0.4,3.8-1.1,5.6-1.7c3.4-1.2,6-2.4,7.1-2.9
	c0.7-0.3,1.9-1,3.2-1.7c0.1,0,0.2-0.1,0.2-0.1c0,0,0.1-0.1,0.1-0.1c1.1-0.7,1.9-1.3,2.6-1.7c0.1,0,0.1-0.1,0.1-0.1
	c0.1-0.1,0.2-0.1,0.3-0.2c0.4-0.3,0.8-0.6,1.2-0.9c0.3-0.3,0.6-0.5,1-0.9c0,0,0.1-0.1,0.1-0.1c0.2-0.1,0.3-0.3,0.5-0.4
	c0.1-0.1,0.3-0.3,0.4-0.4c0.1-0.1,0.2-0.2,0.3-0.3c0.1-0.1,0.1-0.1,0.2-0.2c0.1-0.1,0.1-0.1,0.2-0.2c0.1-0.1,0.3-0.3,0.4-0.5
	c0.2-0.2,0.3-0.4,0.5-0.5c0,0,0.1-0.1,0.1-0.1c0-0.1,0.1-0.1,0.1-0.2c0.2-0.2,0.3-0.4,0.5-0.7c0,0,0.1-0.1,0.1-0.1
	c0.3-0.4,0.6-0.9,0.9-1.3c0.1-0.2,0.2-0.4,0.3-0.6c0.1-0.1,0.1-0.2,0.2-0.4c0.1-0.1,0.1-0.3,0.2-0.4c0.4-0.7,0.7-1.4,1.1-2.3
	c0,0,0-0.1,0-0.1c0.1-0.2,0.1-0.4,0.2-0.6c0.2-0.4,0.3-1,0.4-1.4c0.1-0.3,0.2-0.7,0.3-1.1c0.4-1.1,0.5-2.4,0.4-3.6
	C220.1,108.3,220,107.5,219.8,106.6z"/>
</svg>
